<?xml version="1.0" encoding="UTF-8" standalone="no"?>
<!DOCTYPE svg PUBLIC "-//W3C//DTD SVG 1.1//EN"
 "http://www.w3.org/Graphics/SVG/1.1/DTD/svg11.dtd">
<!-- Generated by graphviz version 2.43.0 (0)
 -->
<!-- Title: %3 Pages: 1 -->
<svg width="576pt" height="84pt"
 viewBox="0.00 0.00 576.00 84.47" xmlns="http://www.w3.org/2000/svg" xmlns:xlink="http://www.w3.org/1999/xlink">
<g id="graph0" class="graph" transform="scale(0.38 0.38) rotate(0) translate(4 219.48)">
<title>%3</title>
<polygon fill="white" stroke="transparent" points="-4,4 -4,-219.48 1519.89,-219.48 1519.89,4 -4,4"/>
<!-- sam2_base -->
<g id="node1" class="node">
<title>sam2_base</title>
<ellipse fill="none" stroke="black" cx="810.5" cy="-197.48" rx="75.29" ry="18"/>
<text text-anchor="middle" x="810.5" y="-193.78" font-family="Times,serif" font-size="14.00">sam2_base.py</text>
</g>
<!-- MaskDecoder -->
<g id="node2" class="node">
<title>MaskDecoder</title>
<ellipse fill="none" stroke="black" cx="205.5" cy="-116.61" rx="105.22" ry="26.74"/>
<text text-anchor="middle" x="205.5" y="-120.41" font-family="Times,serif" font-size="14.00">MaskDecoder</text>
<text text-anchor="middle" x="205.5" y="-105.41" font-family="Times,serif" font-size="14.00">(mask_decoder.py)</text>
</g>
<!-- sam2_base&#45;&gt;MaskDecoder -->
<g id="edge1" class="edge">
<title>sam2_base&#45;&gt;MaskDecoder</title>
<path fill="none" stroke="black" d="M746.04,-188.08C641.25,-174.42 433.08,-147.28 307.88,-130.96"/>
<polygon fill="black" stroke="black" points="308.26,-127.48 297.89,-129.65 307.35,-134.42 308.26,-127.48"/>
</g>
<!-- PromptEncoder -->
<g id="node3" class="node">
<title>PromptEncoder</title>
<ellipse fill="none" stroke="black" cx="685.5" cy="-116.61" rx="115.93" ry="26.74"/>
<text text-anchor="middle" x="685.5" y="-120.41" font-family="Times,serif" font-size="14.00">PromptEncoder</text>
<text text-anchor="middle" x="685.5" y="-105.41" font-family="Times,serif" font-size="14.00">(prompt_encoder.py)</text>
</g>
<!-- sam2_base&#45;&gt;PromptEncoder -->
<g id="edge2" class="edge">
<title>sam2_base&#45;&gt;PromptEncoder</title>
<path fill="none" stroke="black" d="M785.2,-180.52C770.25,-171.08 750.82,-158.82 733.09,-147.64"/>
<polygon fill="black" stroke="black" points="734.87,-144.62 724.55,-142.25 731.14,-150.54 734.87,-144.62"/>
</g>
<!-- TwoWayTransformer -->
<g id="node4" class="node">
<title>TwoWayTransformer</title>
<ellipse fill="none" stroke="black" cx="936.5" cy="-116.61" rx="116.85" ry="26.74"/>
<text text-anchor="middle" x="936.5" y="-120.41" font-family="Times,serif" font-size="14.00">TwoWayTransformer</text>
<text text-anchor="middle" x="936.5" y="-105.41" font-family="Times,serif" font-size="14.00">(transformer.py)</text>
</g>
<!-- sam2_base&#45;&gt;TwoWayTransformer -->
<g id="edge3" class="edge">
<title>sam2_base&#45;&gt;TwoWayTransformer</title>
<path fill="none" stroke="black" d="M836,-180.52C851.08,-171.08 870.66,-158.82 888.53,-147.64"/>
<polygon fill="black" stroke="black" points="890.52,-150.52 897.14,-142.25 886.81,-144.59 890.52,-150.52"/>
</g>
<!-- sam2_utils -->
<g id="node5" class="node">
<title>sam2_utils</title>
<ellipse fill="none" stroke="black" cx="1145.5" cy="-116.61" rx="74.99" ry="18"/>
<text text-anchor="middle" x="1145.5" y="-112.91" font-family="Times,serif" font-size="14.00">sam2_utils.py</text>
</g>
<!-- sam2_base&#45;&gt;sam2_utils -->
<g id="edge4" class="edge">
<title>sam2_base&#45;&gt;sam2_utils</title>
<path fill="none" stroke="black" d="M868.41,-185.92C919.72,-176.18 996.52,-160.66 1062.5,-143.48 1072.68,-140.83 1083.48,-137.7 1093.79,-134.56"/>
<polygon fill="black" stroke="black" points="1094.98,-137.85 1103.5,-131.55 1092.91,-131.17 1094.98,-137.85"/>
</g>
<!-- LayerNorm2d_md -->
<g id="node11" class="node">
<title>LayerNorm2d_md</title>
<polygon fill="none" stroke="black" points="125,-45.87 0,-45.87 0,-7.87 125,-7.87 125,-45.87"/>
<text text-anchor="middle" x="62.5" y="-30.67" font-family="Times,serif" font-size="14.00">LayerNorm2d</text>
<text text-anchor="middle" x="62.5" y="-15.67" font-family="Times,serif" font-size="14.00">(sam2_utils.py)</text>
</g>
<!-- MaskDecoder&#45;&gt;LayerNorm2d_md -->
<g id="edge10" class="edge">
<title>MaskDecoder&#45;&gt;LayerNorm2d_md</title>
<path fill="none" stroke="black" d="M166.42,-91.63C145.97,-79.08 121.02,-63.77 100.69,-51.3"/>
<polygon fill="black" stroke="black" points="102.35,-48.22 92,-45.97 98.69,-54.18 102.35,-48.22"/>
</g>
<!-- MLP_md -->
<g id="node12" class="node">
<title>MLP_md</title>
<polygon fill="none" stroke="black" points="268,-45.87 143,-45.87 143,-7.87 268,-7.87 268,-45.87"/>
<text text-anchor="middle" x="205.5" y="-30.67" font-family="Times,serif" font-size="14.00">MLP</text>
<text text-anchor="middle" x="205.5" y="-15.67" font-family="Times,serif" font-size="14.00">(sam2_utils.py)</text>
</g>
<!-- MaskDecoder&#45;&gt;MLP_md -->
<g id="edge11" class="edge">
<title>MaskDecoder&#45;&gt;MLP_md</title>
<path fill="none" stroke="black" d="M205.5,-89.29C205.5,-78.84 205.5,-66.8 205.5,-56.16"/>
<polygon fill="black" stroke="black" points="209,-56.11 205.5,-46.11 202,-56.11 209,-56.11"/>
</g>
<!-- PositionEmbeddingRandom -->
<g id="node9" class="node">
<title>PositionEmbeddingRandom</title>
<ellipse fill="none" stroke="black" cx="437.5" cy="-26.87" rx="151.14" ry="26.74"/>
<text text-anchor="middle" x="437.5" y="-30.67" font-family="Times,serif" font-size="14.00">PositionEmbeddingRandom</text>
<text text-anchor="middle" x="437.5" y="-15.67" font-family="Times,serif" font-size="14.00">(position_encoding.py)</text>
</g>
<!-- PromptEncoder&#45;&gt;PositionEmbeddingRandom -->
<g id="edge8" class="edge">
<title>PromptEncoder&#45;&gt;PositionEmbeddingRandom</title>
<path fill="none" stroke="black" d="M623.88,-93.81C590.31,-81.93 548.49,-67.14 512.98,-54.58"/>
<polygon fill="black" stroke="black" points="513.74,-51.13 503.15,-51.09 511.41,-57.73 513.74,-51.13"/>
</g>
<!-- LayerNorm2d_pe -->
<g id="node10" class="node">
<title>LayerNorm2d_pe</title>
<ellipse fill="none" stroke="black" cx="695.5" cy="-26.87" rx="88.28" ry="26.74"/>
<text text-anchor="middle" x="695.5" y="-30.67" font-family="Times,serif" font-size="14.00">LayerNorm2d</text>
<text text-anchor="middle" x="695.5" y="-15.67" font-family="Times,serif" font-size="14.00">(sam2_utils.py)</text>
</g>
<!-- PromptEncoder&#45;&gt;LayerNorm2d_pe -->
<g id="edge9" class="edge">
<title>PromptEncoder&#45;&gt;LayerNorm2d_pe</title>
<path fill="none" stroke="black" d="M688.5,-89.29C689.41,-81.32 690.42,-72.43 691.39,-63.94"/>
<polygon fill="black" stroke="black" points="694.88,-64.21 692.54,-53.87 687.93,-63.41 694.88,-64.21"/>
</g>
<!-- apply_rotary_enc -->
<g id="node6" class="node">
<title>apply_rotary_enc</title>
<ellipse fill="none" stroke="black" cx="927.5" cy="-26.87" rx="125.32" ry="26.74"/>
<text text-anchor="middle" x="927.5" y="-30.67" font-family="Times,serif" font-size="14.00">apply_rotary_enc</text>
<text text-anchor="middle" x="927.5" y="-15.67" font-family="Times,serif" font-size="14.00">(position_encoding.py)</text>
</g>
<!-- TwoWayTransformer&#45;&gt;apply_rotary_enc -->
<g id="edge5" class="edge">
<title>TwoWayTransformer&#45;&gt;apply_rotary_enc</title>
<path fill="none" stroke="black" d="M933.8,-89.29C932.98,-81.32 932.07,-72.43 931.2,-63.94"/>
<polygon fill="black" stroke="black" points="934.67,-63.46 930.17,-53.87 927.71,-64.18 934.67,-63.46"/>
</g>
<!-- compute_axial_cis -->
<g id="node7" class="node">
<title>compute_axial_cis</title>
<ellipse fill="none" stroke="black" cx="1195.5" cy="-26.87" rx="125.32" ry="26.74"/>
<text text-anchor="middle" x="1195.5" y="-30.67" font-family="Times,serif" font-size="14.00">compute_axial_cis</text>
<text text-anchor="middle" x="1195.5" y="-15.67" font-family="Times,serif" font-size="14.00">(position_encoding.py)</text>
</g>
<!-- TwoWayTransformer&#45;&gt;compute_axial_cis -->
<g id="edge6" class="edge">
<title>TwoWayTransformer&#45;&gt;compute_axial_cis</title>
<path fill="none" stroke="black" d="M1000.19,-94.03C1036.64,-81.69 1082.57,-66.13 1120.73,-53.2"/>
<polygon fill="black" stroke="black" points="1121.9,-56.5 1130.25,-49.97 1119.66,-49.87 1121.9,-56.5"/>
</g>
<!-- MLP -->
<g id="node8" class="node">
<title>MLP</title>
<ellipse fill="none" stroke="black" cx="1427.5" cy="-26.87" rx="88.28" ry="26.74"/>
<text text-anchor="middle" x="1427.5" y="-30.67" font-family="Times,serif" font-size="14.00">MLP</text>
<text text-anchor="middle" x="1427.5" y="-15.67" font-family="Times,serif" font-size="14.00">(sam2_utils.py)</text>
</g>
<!-- TwoWayTransformer&#45;&gt;MLP -->
<g id="edge7" class="edge">
<title>TwoWayTransformer&#45;&gt;MLP</title>
<path fill="none" stroke="black" d="M1019.38,-97.6C1033.41,-94.8 1047.85,-92.07 1061.5,-89.74 1179.97,-69.55 1211.62,-77.12 1329.5,-53.74 1337.69,-52.12 1346.21,-50.21 1354.65,-48.17"/>
<polygon fill="black" stroke="black" points="1355.64,-51.53 1364.51,-45.73 1353.96,-44.74 1355.64,-51.53"/>
</g>
</g>
</svg>
